# xmcd CD database file
#
# Track frame offsets:
#	150
#	31668
#	54918
#	88478
#	112553
#	144578
#	172928
#	200378
#	222503
#
# Disc length: 3234 seconds
#
# Revision: 0
# Processed by: cddbd v1.5.2PL0 Copyright (c) Steve Scherf et al.
# Submitted via: CDex 1.70beta2
#
DISCID=720ca009
DTITLE=Schlesinger/Lackerschmid Sextett - Tribute to George Gershwin
DYEAR=2005
DGENRE=Jazz
TTITLE0=Ouvertüre - How Long Has This Been Going On
TTITLE1=S'Wonderful
TTITLE2=But Not For Me
TTITLE3=I've Got A Crush On You
TTITLE4=Lady Be Good
TTITLE5=Summertime
TTITLE6=Somebody Loves Me
TTITLE7=My Sweet Embraceable You
TTITLE8=Let's Call The Whole Thing Off
EXTD=YEAR: 2005
EXTT0=
EXTT1=
EXTT2=
EXTT3=
EXTT4=
EXTT5=
EXTT6=
EXTT7=
EXTT8=
PLAYORDER=
